<?xml version="1.0" encoding="UTF-8" standalone="no"?>
<!-- Created with Inkscape (http://www.inkscape.org/) -->

<svg
   width="800"
   height="800"
   viewBox="0 0 211.66666 211.66667"
   version="1.1"
   id="svg5"
   inkscape:version="1.2 (dc2aedaf03, 2022-05-15)"
   sodipodi:docname="talkbox.svg"
   inkscape:export-filename="talkbox.png"
   inkscape:export-xdpi="96"
   inkscape:export-ydpi="96"
   xmlns:inkscape="http://www.inkscape.org/namespaces/inkscape"
   xmlns:sodipodi="http://sodipodi.sourceforge.net/DTD/sodipodi-0.dtd"
   xmlns="http://www.w3.org/2000/svg"
   xmlns:svg="http://www.w3.org/2000/svg">
  <sodipodi:namedview
     id="namedview7"
     pagecolor="#ffffff"
     bordercolor="#000000"
     borderopacity="0.25"
     inkscape:showpageshadow="2"
     inkscape:pageopacity="0.0"
     inkscape:pagecheckerboard="0"
     inkscape:deskcolor="#d1d1d1"
     inkscape:document-units="mm"
     showgrid="false"
     showguides="false"
     inkscape:zoom="0.5229307"
     inkscape:cx="289.71334"
     inkscape:cy="430.26734"
     inkscape:window-width="1366"
     inkscape:window-height="745"
     inkscape:window-x="-8"
     inkscape:window-y="-8"
     inkscape:window-maximized="1"
     inkscape:current-layer="layer1">
    <inkscape:grid
       type="xygrid"
       id="grid132"
       spacingx="6.6145833"
       spacingy="6.6145833" />
  </sodipodi:namedview>
  <defs
     id="defs2" />
  <g
     inkscape:label="Layer 1"
     inkscape:groupmode="layer"
     id="layer1">
    <path
       id="path188"
       style="fill:#333333;stroke-width:5.4483;stroke-linejoin:round"
       d="M 106.75834 12.64884 L 106.75834 26.409241 A 79.436111 79.436111 0 0 1 185.26931 105.83333 A 79.436111 79.436111 0 0 1 106.75834 185.23469 L 106.75834 198.33725 L 198.33725 198.33725 L 198.33725 12.64884 L 106.75834 12.64884 z M 106.75834 185.23469 L 106.75834 172.1466 A 19.479555 19.479555 0 0 1 102.96322 172.53314 A 19.479555 19.479555 0 0 1 83.483793 153.05371 A 19.479555 19.479555 0 0 1 102.96322 133.57428 A 19.479555 19.479555 0 0 1 106.75834 133.94893 L 106.75834 119.55446 A 16.349072 16.706841 0 0 0 122.87984 102.8516 A 16.349072 16.706841 0 0 0 106.75834 86.148747 L 106.75834 26.409241 A 79.436111 79.436111 0 0 0 105.83333 26.397355 A 79.436111 79.436111 0 0 0 26.397355 105.83333 A 79.436111 79.436111 0 0 0 105.83333 185.26931 A 79.436111 79.436111 0 0 0 106.75834 185.23469 z M 82.808899 45.690751 A 10.088105 10.088105 0 0 1 92.897172 55.779024 A 10.088105 10.088105 0 0 1 82.808899 65.867297 A 10.088105 10.088105 0 0 1 72.720626 55.779024 A 10.088105 10.088105 0 0 1 82.808899 45.690751 z M 129.92334 132.06119 L 112.67633 142.18719 L 114.59766 145.45934 L 131.84467 135.33334 L 129.92334 132.06119 z M 112.44998 150.14432 L 112.44998 153.93892 L 132.45031 153.93892 L 132.45031 150.14432 L 112.44998 150.14432 z M 114.21887 158.7345 L 112.23604 161.96996 L 129.2903 172.4179 L 131.27261 169.18244 L 114.21887 158.7345 z " />
  </g>
</svg>
